<svg id="Layer_1" height="512" viewBox="0 0 512 512" width="512" xmlns="http://www.w3.org/2000/svg" xmlns:xlink="http://www.w3.org/1999/xlink" data-name="Layer 1"><linearGradient id="linear-gradient" gradientUnits="userSpaceOnUse" x1="255.687" x2="255.688" y1="443" y2="100.013"><stop offset=".322" stop-color="#a163f5"/><stop offset=".466" stop-color="#b074ee"/><stop offset=".752" stop-color="#d8a1dd"/><stop offset=".898" stop-color="#efbad3"/></linearGradient><linearGradient id="linear-gradient-3" x1="256" x2="256" xlink:href="#linear-gradient" y1="443" y2="100.013"/><path d="m261.688 309.358v-89.915a6 6 0 1 0 -12 0v89.915a6 6 0 1 0 12 0z" fill="url(#linear-gradient)"/><path d="m255.688 201.34a6 6 0 0 0 6-6v-23.291a6 6 0 1 0 -12 0v23.291a6 6 0 0 0 6 6z" fill="url(#linear-gradient)"/><path d="m488.766 311.422-32.236 1.863-99.755-78.028v-7.157a70.129 70.129 0 0 0 -27.456-55.455l-34.261-26.119v-40.726a64.888 64.888 0 0 0 -10.352-35.2l-23.661-36.75a6 6 0 0 0 -10.09 0l-23.661 36.75a64.888 64.888 0 0 0 -10.352 35.2v40.271l-34.532 26.59a70.175 70.175 0 0 0 -27.185 55.248v7.348l-99.755 78.028-32.235-1.862a12.5 12.5 0 0 0 -12.835 15.606l17.64 68.234a12.513 12.513 0 0 0 12.138 9.373l65.941-.293-9.73 10.26a12.444 12.444 0 0 0 -3.076 11.564l7.692 31.493a12.559 12.559 0 0 0 9.638 9.282l64.812 13.285a12.525 12.525 0 0 0 11.954-4.044l25.028-28.771h5.9v15.488a6 6 0 0 0 2.183 4.63l.939.773a55 55 0 0 0 71.21-.868 6 6 0 0 0 2.071-4.535v-15.6l4.753-.089 25.09 28.977a12.524 12.524 0 0 0 11.954 4.045l64.812-13.285a12.561 12.561 0 0 0 9.639-9.282l7.69-31.491a12.444 12.444 0 0 0 -3.071-11.563l-9.442-9.97h65.676a12.506 12.506 0 0 0 12.111-9.373l17.648-68.239a12.5 12.5 0 0 0 -12.832-15.608zm-437.382 81.164-11.231.05a.508.508 0 0 1 -.494-.377l-17.639-68.234a.452.452 0 0 1 .1-.438.469.469 0 0 1 .426-.184l28.841 1.666zm305.391-71.6 24.77 18.456-24.77 1.937zm39.391 29.349 20.925 15.591-45.226 2.489-14.265-15.065zm-101.108-188.718 26.986 20.573a58.119 58.119 0 0 1 22.336 39.229l-49.322-35.826zm0 38.808 49.717 36.113v17.671l-49.717-36.109zm0 70.6 24.213 16.775a.5.5 0 0 1 .216.406l.242 31.166a.507.507 0 0 1 -.758.439l-23.913-13.96zm-66.116-165.225a52.9 52.9 0 0 1 8.442-28.7l18.616-28.92 18.616 28.914a52.9 52.9 0 0 1 8.442 28.7v.9h-54.116zm0 45.407h1.746a6 6 0 0 0 0-12h-1.746v-20.507h54.116v20.5h-10.37a6 6 0 0 0 0 12h10.37v198.888a52.882 52.882 0 0 0 -54.116.888zm-39.21 30.964 27.21-20.954v24.38l-49.342 35.836a58.157 58.157 0 0 1 22.132-39.265zm-22.507 54.37 49.717-36.113v17.672l-49.717 36.112zm-103.841 85.789 91.841-71.838v55.527l-91.841 68.429zm67.071 17.11 24.77-18.456v20.393zm24.025 13.916-14.28 15.06-45.288-2.492 20.925-15.591zm-91.1 39.177v-3.119l16.5-12.3 49.475 2.722-11.813 12.454zm49.671 62.653a.506.506 0 0 1 -.391-.373l-7.691-31.494a.492.492 0 0 1 .124-.458l56.764-59.849 33.281 25.322-61.318 71.108zm65.3 13.121a.507.507 0 0 1 -.489.164l-30.576-6.271 9.568-11.1 29.557 7.941zm25.349-29.14-8.533 9.809-29.618-7.957 9.5-11.011 28.656 7.889zm0-13.716-19.982-5.5 19.982-23.171zm2.1-44.08-38.386-29.207a.5.5 0 0 1 -.2-.395v-82.728l49.717-36.113v23.551l-31.036 21.45a12.513 12.513 0 0 0 -5.393 10.185l-.242 31.166a12.557 12.557 0 0 0 12.519 12.62 12.49 12.49 0 0 0 6.292-1.718l17.871-10.394v41.335a53.037 53.037 0 0 0 -11.135 20.248zm11.135-110.306v34.835l-23.9 13.9a.46.46 0 0 1 -.517 0 .445.445 0 0 1 -.25-.435l.242-31.166a.5.5 0 0 1 .216-.406zm1.5 164.347h-2.733v-39.287a41.068 41.068 0 0 1 19.923-35.184v57.281a17.21 17.21 0 0 1 -17.187 17.19zm64.308 24.638a43.02 43.02 0 0 1 -52.4-.019v-15.167a29.226 29.226 0 0 0 17.285-26.642v-62.122a41.2 41.2 0 0 1 20.483.576v61.554a29.191 29.191 0 0 0 14.635 25.281zm15.048-25.138a.5.5 0 0 1 -.5.5 17.2 17.2 0 0 1 -17.183-17.182v-55.842a41.025 41.025 0 0 1 17.683 33.729zm-2.736-75.426v-39.739l17.871 10.434a12.379 12.379 0 0 0 12.573.006 12.362 12.362 0 0 0 6.227-10.907l-.242-31.167a12.507 12.507 0 0 0 -5.387-10.179l-31.042-21.508v-23.5l49.717 36.113v82.728a.5.5 0 0 1 -.171.375l-37.576 27.093a53.14 53.14 0 0 0 -11.967-19.749zm14.736 39.031 18.483 21.433-18.483 5.088zm7.1 50.442-8.043-9.289a12.468 12.468 0 0 0 .656-2.106l27.447-7.556 9.5 11.011zm17.242 19.512a.5.5 0 0 1 -.481-.154l-8.033-9.277 29.527-7.933 9.568 11.1zm72.767-45.609a.491.491 0 0 1 .122.459l-7.689 31.491a.508.508 0 0 1 -.392.374l-20.765 4.256-62.061-71.966 34.032-24.539zm41.712-30.226h-53.81l-12.123-12.8 49.428-2.719 16.5 12.3zm0-18.188-91.841-68.429v-55.527l91.841 71.838zm41.364-50.423-17.639 68.234a.508.508 0 0 1 -.494.377h-11.227v-67.567l28.842-1.667a.481.481 0 0 1 .425.185.452.452 0 0 1 .097.438z" fill="url(#linear-gradient-3)"/></svg>