<svg xmlns="http://www.w3.org/2000/svg" viewBox="0 0 32 40" x="0px" y="0px"><title>UI</title><g data-name="Layer 2"><path d="M27.4,5H4.6A3.608,3.608,0,0,0,1,8.6V23.4A3.608,3.608,0,0,0,4.6,27H27.4A3.608,3.608,0,0,0,31,23.4V8.6A3.608,3.608,0,0,0,27.4,5ZM29,8.6V23.4a1.606,1.606,0,0,1-.027.271L19.911,16l9.062-7.667A1.627,1.627,0,0,1,29,8.6ZM27.4,7c.017,0,.033,0,.05,0L16,16.69,4.554,7.005c.017,0,.033,0,.05,0ZM3.027,23.667A1.606,1.606,0,0,1,3,23.4V8.6a1.627,1.627,0,0,1,.027-.271L12.089,16ZM4.6,25c-.017,0-.033,0-.05,0l9.082-7.685,1.718,1.453a1,1,0,0,0,1.292,0l1.718-1.453L27.446,25c-.017,0-.033,0-.05,0Z"/></g><text x="0" y="47" fill="#6f42c1" font-size="5px" font-weight="bold" font-family="'Helvetica Neue', Helvetica, Arial-Unicode, Arial, Sans-serif">Created by Ilham Fitrotul Hayat</text><text x="0" y="52" fill="#000000" font-size="5px" font-weight="bold" font-family="'Helvetica Neue', Helvetica, Arial-Unicode, Arial, Sans-serif">from the Noun Project</text></svg>
