<svg xmlns="http://www.w3.org/2000/svg" data-name="Layer 1" viewBox="0 0 100 125" x="0px" y="0px"><title>Spesial 2</title><path d="M16.15651,73.2002c5.15967,7.35839,10.72022,13.00244,16.52735,16.77587a21.82937,21.82937,0,0,0,11.92676,3.499,23.14259,23.14259,0,0,0,4.21093-.38916l1.30713-.24756a5.86823,5.86823,0,0,0,4.23328-3.257A41.54029,41.54029,0,1,0,14.78219,31.66174l-.25263-.006a5.90907,5.90907,0,0,0-5.21435,2.90235l-.67627,1.15332A22.10479,22.10479,0,0,0,6.04812,51.92871C7.59255,58.667,10.99343,65.82373,16.15651,73.2002ZM52.95485,8.5249A39.546,39.546,0,0,1,55.094,87.55908l1.82325-5.376a.99963.99963,0,0,0-.439-1.18262l-15.7251-9.26611a.98859.98859,0,0,0-.408-.12543c-.01922-.002-.03668-.00666-.056-.00745-.01471-.00067-.029-.0058-.04376-.0058a.99819.99819,0,0,0-.39258.08057L34.45632,73.981A31.86319,31.86319,0,0,1,21.68239,55.7334L25.697,51.45361a.99947.99947,0,0,0,.25391-.8667L22.617,32.64209a1.00013,1.00013,0,0,0-.95947-.81689l-4.71875-.11377A39.417,39.417,0,0,1,52.95485,8.5249ZM10.36355,36.72461l.67382-1.14941a3.92191,3.92191,0,0,1,3.36182-1.9209c.02881,0,.05762,0,.08643.001l6.313.14942,3.09327,16.6499-4.023,4.28857a.99943.99943,0,0,0-.25733.84522,30.79868,30.79868,0,0,0,5.17383,11.56933,30.78758,30.78758,0,0,0,9.09863,8.81885,1.0028,1.0028,0,0,0,.88135.04688l5.40772-2.30957,14.58935,8.59668-2.02783,5.978c-.00781.022-.01416.04493-.02051.06788A3.87719,3.87719,0,0,1,49.763,90.87207l-1.30957.24805a20.09693,20.09693,0,0,1-14.68018-2.82129c-5.59131-3.6333-10.96728-9.09912-15.97851-16.2461-5.01416-7.16357-8.31055-14.085-9.79737-20.57177A20.115,20.115,0,0,1,10.36355,36.72461Z"/><path d="M52.9573,18.69141a4.01416,4.01416,0,1,0-4.01416-4.01416A4.01876,4.01876,0,0,0,52.9573,18.69141Zm0-6.02832a2.01416,2.01416,0,1,1-2.01416,2.01416A2.01615,2.01615,0,0,1,52.9573,12.66309Z"/><path d="M86.35036,52.08447a4.01416,4.01416,0,1,0-4.01416-4.01416A4.01875,4.01875,0,0,0,86.35036,52.08447Zm0-6.02832a2.01416,2.01416,0,1,1-2.01416,2.01416A2.01615,2.01615,0,0,1,86.35036,46.05615Z"/><path d="M50.94216,55.57275h-7.208l.15527-.16748c3.4126-3.64941,6.74414-7.68457,6.74414-13.32519,0-2.229-.71679-9.50147-9.9414-9.50147a15.09844,15.09844,0,0,0-7.21387,1.86328l-.60449.3667,1.52978,7.34766,1.20362-.71338a7.57055,7.57055,0,0,1,3.85058-1.22607,2.219,2.219,0,0,1,2.481,2.39209c0,3.11816-2.35889,6.17724-6.21191,10.915l-3.25928,4.0625V63.563H50.94216Zm-2,5.99024H34.46755V58.28955l2.81494-3.50879c3.71875-4.57275,6.65625-8.18506,6.65625-12.17187a4.20084,4.20084,0,0,0-4.481-4.39209,8.6579,8.6579,0,0,0-3.65185.86279l-.67822-3.25635a13.65462,13.65462,0,0,1,5.56445-1.24463c6.90967,0,7.9414,4.69971,7.9414,7.50147,0,4.916-2.93505,8.46191-6.20849,11.96289L40.7947,55.80518l-.26612.376v1.3916h8.41358Z"/><path d="M52.7698,57.17578h9.95556V63.563h7.99072V57.17578h2.731V49.7583h-2.731V32.93115H62.55251L52.7698,51.25684Zm2-5.41894,8.98193-16.82569h4.96435V51.7583h2.731v3.41748h-2.731V61.563H64.72536V55.17578H54.7698Z"/><path d="M64.72536,45.86865c0-1.12451.13672-2.51953.25733-3.75l.15185-1.56689H63.23317l-.25586.61767c-.5625,1.36084-1.14111,2.62793-1.813,3.97266l-2.64307,5.06543-.11328.30566V51.7583h6.31738Zm-2,3.88965H61.01149l1.71387-3.28467Z"/><text x="0" y="115" fill="#000000" font-size="5px" font-weight="bold" font-family="'Helvetica Neue', Helvetica, Arial-Unicode, Arial, Sans-serif">Created by Ifki rianto</text><text x="0" y="120" fill="#000000" font-size="5px" font-weight="bold" font-family="'Helvetica Neue', Helvetica, Arial-Unicode, Arial, Sans-serif">from the Noun Project</text></svg>